<?xml version="1.0" encoding="UTF-8" standalone="no"?>
<!-- Created with Inkscape (http://www.inkscape.org/) -->

<svg
   id="svg2"
   sodipodi:docname="tic-tac-toe.svg"
   viewBox="0 0 178.78 178.36"
   version="1.1"
   inkscape:version="1.1.2 (b8e25be833, 2022-02-05)"
   xmlns:inkscape="http://www.inkscape.org/namespaces/inkscape"
   xmlns:sodipodi="http://sodipodi.sourceforge.net/DTD/sodipodi-0.dtd"
   xmlns="http://www.w3.org/2000/svg"
   xmlns:svg="http://www.w3.org/2000/svg"
   xmlns:rdf="http://www.w3.org/1999/02/22-rdf-syntax-ns#"
   xmlns:cc="http://creativecommons.org/ns#"
   xmlns:dc="http://purl.org/dc/elements/1.1/">
  <defs
     id="defs22" />
  <title
     id="title3697">Tic Tac Toe</title>
  <sodipodi:namedview
     id="base"
     bordercolor="#666666"
     inkscape:pageshadow="2"
     inkscape:window-y="-9"
     pagecolor="#ffffff"
     inkscape:window-height="1001"
     inkscape:window-maximized="1"
     inkscape:zoom="0.98994949"
     inkscape:window-x="-9"
     showgrid="false"
     borderopacity="1.0"
     inkscape:current-layer="layer1"
     inkscape:cx="238.90108"
     inkscape:cy="5.0507627"
     inkscape:window-width="1920"
     inkscape:pageopacity="0.0"
     inkscape:document-units="px"
     inkscape:pagecheckerboard="0" />
  <g
     id="layer1"
     inkscape:label="Layer 1"
     inkscape:groupmode="layer"
     transform="translate(-136.89 -361.85)">
    <g
       id="g3682"
       transform="translate(0,2.0203051)">
      <path
         id="path2816"
         style="fill:none;stroke:#000000;stroke-width:2"
         d="M 200.01,364.45 V 539.21" />
      <path
         id="path2816-1"
         style="fill:none;stroke:#000000;stroke-width:2"
         d="M 249.51,362.93 V 537.69" />
      <path
         id="path2816-1-7"
         style="fill:none;stroke:#000000;stroke-width:2"
         d="M 137.89,414.96 H 312.65" />
      <path
         id="path2816-1-7-4"
         style="fill:none;stroke:#000000;stroke-width:2"
         d="M 138.9,469.5 H 313.66" />
      <path
         id="path3662"
         style="color:#000000;fill:#000000;stroke:#000000;stroke-width:2"
         d="m 266.05,362.85 c 17.317,13.619 31.373,30.861 48.62,44.548 -5.6697,5.2468 -10.334,-5.7541 -15.167,-8.2324 -11.955,-11.701 -23.414,-24.064 -36.804,-34.17 z" />
      <path
         id="path3664"
         style="color:#000000;fill:#000000;stroke:#000000;stroke-width:2"
         d="m 305.31,367.12 c -9.2132,6.0873 -16.95,14.285 -24.043,22.682 -4.2967,4.0039 -3.9316,12.117 -10.264,13.645 3.6257,-8.7506 9.2335,-16.467 16.395,-22.675 5.3461,-5.1794 10.588,-11.359 17.913,-13.652 z" />
      <path
         id="path3666"
         style="color:#000000;fill:#000000;stroke:#000000;stroke-width:2"
         d="m 172.42,372.69 c -2.674,-0.49567 -11.991,2.1652 -10.445,1.917 2.4912,-1.9686 -6.2231,6.5825 -4.5363,10.505 -1.1832,10.746 10.21,16.955 19.349,18.04 2.3204,0.20924 8.5927,-2.755 3.2503,-0.15573 5.7404,-7.2532 4.2259,-19.119 -1.8802,-25.894 -3.8397,-2.3743 -11.256,-7.701 -3.2584,-6.8878 9.01,4.1554 14.036,14.755 11.639,24.365 -0.30497,10.69 -15.099,13.553 -22.468,7.754 -9.5682,-3.1538 -13.041,-15.405 -7.6938,-23.579 3.3869,-6.0303 15.195,-9.1522 18.453,-7.815 l -2.4103,1.7512 z" />
      <path
         id="path3668"
         style="color:#000000;fill:#000000;stroke:#000000;stroke-width:2"
         d="m 214.32,422.48 c 10.124,10.79 19.187,22.651 30.48,32.265 4.6849,4.3526 -3.8795,7.2545 -4.2151,1.162 -10.92,-9.415 -19.535,-21.124 -29.669,-31.341 1.1347,-0.69533 2.2694,-1.3907 3.404,-2.086 z" />
      <path
         id="path3670"
         style="color:#000000;fill:#000000;stroke:#000000;stroke-width:2"
         d="m 240.78,425.69 c -8.0268,7.5552 -17.969,13.122 -24.691,21.964 -0.3697,4.0065 -9.616,9.6592 -4.3193,2.7953 5.9022,-9.5559 16.436,-14.734 24.328,-22.444 1.2081,-1.3191 3.1301,-1.5485 4.6819,-2.3158 z" />
      <path
         id="path3674"
         style="color:#000000;fill:#000000;stroke:#000000;stroke-width:2"
         d="m 161.33,483.96 c -3.3093,0.6586 -8.0703,2.8198 -6.9305,2.3922 -3.168,1.8711 -3.1459,1.6422 -1.7059,1.2668 -8.8352,5.0023 -13.904,21.166 -4.8826,27.966 5.1498,5.1076 20.556,4.5896 20.602,3.424 -2.7514,1.744 5.1342,-5.6148 3.993,-9.0783 2.3372,-9.6919 -6.4922,-17.444 -13.334,-22.61 -9.3838,-0.7168 5.7907,-5.7532 7.1791,0.82526 7.5813,6.0978 13.283,16.119 8.1327,25.646 -4.7116,8.0949 -15.874,11.053 -24.082,6.5832 -12.446,-2.0154 -12.754,-17.107 -7.0673,-25.792 3.7953,-6.1632 17.772,-13.094 20.072,-12.11 -0.65893,0.49557 -1.3179,0.99115 -1.9768,1.4867 z" />
      <path
         id="path3676"
         style="color:#000000;fill:#000000;stroke:#000000;stroke-width:2"
         d="m 156.82,423.18 c 13.997,8.0274 24.126,20.941 35.501,32.067 -5.0023,5.1446 -8.1484,-4.5391 -12.174,-7.0382 -7.8904,-8.6046 -16.21,-17.311 -26.646,-22.805 1.1062,-0.74112 2.2125,-1.4822 3.3187,-2.2234 z" />
      <path
         id="path3678"
         style="color:#000000;fill:#000000;stroke:#000000;stroke-width:2"
         d="m 189.24,422.86 c -7.959,10.161 -16.78,19.562 -26.069,28.517 -1.2818,3.5348 -13.126,11.787 -6.1696,4.3785 9.3163,-10.012 19.514,-19.264 27.705,-30.302 0.93428,-1.594 3.0327,-1.7455 4.5343,-2.5933 z" />
      <path
         id="path3680"
         style="color:#000000;fill:#000000;stroke:#000000;stroke-width:2"
         d="m 276.63,422.49 c -2.9804,1.7381 -4.475,2.4173 -3.4614,1.9478 -1.7468,1.1225 -8.254,4.4881 -3.0361,1.7356 -10.123,6.3242 -6.9032,19.308 3.2697,23.417 6.5332,2.8381 14.598,3.4411 20.913,-0.45179 -6.6426,4.9498 5.6612,-5.5344 1.3779,-9.8077 -3.4717,-8.8869 -13.8,-12.392 -22.61,-12.924 -8.5684,-0.74035 6.0256,-4.2911 8.9977,-1.4149 8.5579,1.3893 19.664,8.4967 17.132,18.584 -3.1792,8.3052 -14.185,11.986 -22.422,10.097 -8.8931,-0.83788 -21.053,-10.628 -15.125,-20.264 1.2682,-3.8446 9.3084,-9.0342 10.137,-8.8952 -3.7173,2.427 15.162,-9.4059 4.8266,-2.0245 z" />
    </g>
    <path
       style="fill:#000000"
       id="path233"
       d="m 214.78484,518.52646 c 4.63784,-7.43624 9.28566,-14.8674 14.00724,-22.25149 2.7183,-4.32875 5.04347,-8.9923 8.65885,-12.66102 0.33364,-0.25881 0.66728,-0.51763 1.00092,-0.77645 0,0 -7.07746,-0.62643 -7.07746,-0.62643 v 0 c -0.33126,0.28771 -0.66252,0.57542 -0.99378,0.86313 -3.49586,3.78178 -5.77199,8.4695 -8.48019,12.81059 -4.69604,7.45391 -9.33899,14.94314 -14.21467,22.28137 0,0 7.09909,0.3603 7.09909,0.3603 z" />
    <path
       style="fill:#000000"
       id="path235"
       d="m 209.06805,484.21645 c 5.17261,5.14325 9.2421,11.31082 13.07995,17.48315 2.47951,3.9084 3.88878,8.3269 5.80165,12.50787 0.88792,2.10648 2.40934,3.67163 4.1154,5.12686 0,0 7.05651,-0.62593 7.05651,-0.62593 v 0 c -1.70241,-1.33554 -3.22049,-2.78023 -4.10254,-4.80833 -1.97649,-4.19703 -3.41495,-8.65043 -5.922,-12.58939 -3.89054,-6.17981 -7.98773,-12.32157 -12.94918,-17.69887 0,0 -7.07979,0.60464 -7.07979,0.60464 z" />
    <path
       style="fill:#000000"
       id="path237"
       d="m 232.12724,374.42581 c -7.49043,-0.0286 -14.97817,0.0344 -22.46779,0.1445 -5.61096,1.45719 -5.65958,4.32868 -6.33534,9.52481 -0.54487,5.92649 0.86266,11.83446 2.7349,17.42109 1.03272,2.13451 2.89614,5.86597 5.0594,7.11945 1.84759,1.07057 3.27478,1.09033 5.36259,1.43456 6.77929,0.22165 14.19624,0.84495 20.15065,-3.00856 0.62244,-0.40282 1.16787,-0.9137 1.7518,-1.37055 3.40456,-2.97239 4.42016,-5.50554 4.71612,-9.92979 0.0169,-4.91834 -1.55129,-9.76785 -3.25615,-14.34379 -1.65449,-4.22961 -5.81505,-6.06776 -9.43886,-8.36713 0,0 -7.00712,0.70683 -7.00712,0.70683 v 0 c 2.42484,1.53899 5.44739,3.00895 7.53201,4.98177 1.04751,0.99133 1.23651,1.66485 1.86508,2.93634 1.75052,4.45154 3.28684,9.21774 3.25339,14.03586 -0.31965,4.22098 -1.388,6.56591 -4.68093,9.3292 -1.93405,1.40252 -3.79344,2.43309 -6.11169,3.10389 -0.87172,0.25225 -3.37839,0.0772 -2.65097,0.61976 1.05338,0.78571 2.70392,-0.14428 3.92832,0.33302 0.97182,0.37884 -2.08606,-0.0143 -3.12909,-0.0215 -1.58678,-0.19733 -3.72576,-0.30369 -5.23501,-1.04202 -2.12676,-1.04042 -4.11122,-4.75238 -5.0959,-6.74751 -1.89091,-5.47261 -3.32855,-11.2696 -2.72369,-17.09684 0.67611,-4.84083 0.90832,-7.58081 6.26182,-8.55392 -1.51676,-0.0349 -3.03543,-0.0209 -4.55028,-0.10457 -0.88086,-0.0487 1.7644,-4.5e-4 2.6466,-5.9e-4 3.4657,-5.5e-4 6.93141,-0.002 10.3971,0.008 0,0 7.02304,-1.11234 7.02304,-1.11234 z" />
    <path
       style="fill:#000000"
       id="path239"
       d="m 266.65337,514.56323 c 5.18577,-5.64392 9.23135,-12.19177 13.80255,-18.31943 3.10269,-4.06439 6.69586,-7.6352 10.85958,-10.59151 2.11384,-1.40617 4.47388,-2.12062 6.92246,-2.65265 0,0 -7.01651,-0.94513 -7.01651,-0.94513 v 0 c -2.45859,0.62676 -4.81838,1.45367 -6.91588,2.93414 -4.13304,3.0534 -7.73167,6.65396 -10.7694,10.81444 -4.51618,6.17976 -8.61462,12.72425 -13.9584,18.24509 0,0 7.0756,0.51505 7.0756,0.51505 z" />
    <path
       style="fill:#000000"
       id="path241"
       d="m 258.43985,485.20326 c 5.87013,6.8042 10.85391,14.34221 16.04764,21.66774 3.76683,5.29825 7.43267,10.65871 12.21887,15.09677 0,0 7.02639,-0.58879 7.02639,-0.58879 v 0 c -4.90208,-4.31481 -8.59948,-9.6658 -12.40623,-14.932 -5.2252,-7.2932 -10.2095,-14.78181 -15.7972,-21.80168 0,0 -7.08947,0.55796 -7.08947,0.55796 z" />
  </g>
  <metadata
     id="metadata19">
    <rdf:RDF>
      <cc:Work>
        <dc:format>image/svg+xml</dc:format>
        <dc:type
           rdf:resource="http://purl.org/dc/dcmitype/StillImage" />
        <cc:license
           rdf:resource="http://creativecommons.org/licenses/publicdomain/" />
        <dc:publisher>
          <cc:Agent
             rdf:about="http://openclipart.org/">
            <dc:title>Openclipart</dc:title>
          </cc:Agent>
        </dc:publisher>
        <dc:title>Tic Tac Toe</dc:title>
        <dc:date>2010-08-07T16:47:15</dc:date>
        <dc:description>A game of tic-tac-toe in progress.</dc:description>
        <dc:source>https://openclipart.org/detail/78415/tic-tac-toe-by-mazeo</dc:source>
        <dc:creator>
          <cc:Agent>
            <dc:title>mazeo</dc:title>
          </cc:Agent>
        </dc:creator>
        <dc:subject>
          <rdf:Bag>
            <rdf:li>game</rdf:li>
            <rdf:li>games</rdf:li>
            <rdf:li>tic tac toe</rdf:li>
            <rdf:li>tic-tac-toe</rdf:li>
            <rdf:li>tick tack toe</rdf:li>
            <rdf:li>tick-tack-toe</rdf:li>
          </rdf:Bag>
        </dc:subject>
      </cc:Work>
      <cc:License
         rdf:about="http://creativecommons.org/licenses/publicdomain/">
        <cc:permits
           rdf:resource="http://creativecommons.org/ns#Reproduction" />
        <cc:permits
           rdf:resource="http://creativecommons.org/ns#Distribution" />
        <cc:permits
           rdf:resource="http://creativecommons.org/ns#DerivativeWorks" />
      </cc:License>
    </rdf:RDF>
  </metadata>
</svg>
